<svg xmlns="http://www.w3.org/2000/svg" version="1.2" baseProfile="tiny" width="122.88" height="122.88" viewBox="36 36 128 128"><circle cx="100" cy="100" r="60" stroke-width="4" stroke="black" fill="rgb(128,224,255)" fill-opacity="1" ></circle><path d="m 86.9,110 c -3.6,2 -7.2,3.9 -10.8,5.9 2.1,2.9 6.7,3.9 10,2.1 2.6,-0.9 4.7,-3.8 3.1,-6.1 -0.8,-0.6 -1.5,-1.3 -2.3,-1.9 z m 26.3,0.1 c 3.6,2 7.2,3.9 10.8,5.9 -2.1,2.9 -6.7,3.9 -10,2.1 -2.6,-0.9 -4.7,-3.8 -3.1,-6.1 0.8,-0.6 1.5,-1.3 2.3,-1.9 z" stroke-width="3" stroke="black" fill="none" ></path><path d="m 112.9,110 c -5.6,-4 -11.3,-7.9 -16.1,-12.5 -4.2,-4.5 -7,-9.8 -9.2,-15.1 -0.8,4.4 -0.9,9.3 2.4,13.2 3.6,4.5 8.6,8.1 13.5,11.8 2.3,1.7 4.7,3.3 7.1,4.8 0.8,-0.7 1.5,-1.5 2.3,-2.2 m -25.7,0 c 5.6,-4 11.3,-7.9 16.1,-12.5 4.2,-4.5 7,-9.8 9.2,-15.1 0.8,4.4 0.9,9.3 -2.4,13.2 -3.6,4.5 -8.6,8.1 -13.5,11.8 -2.3,1.7 -4.7,3.3 -7.1,4.8 -0.8,-0.7 -1.5,-1.5 -2.3,-2.2" stroke-width="2" stroke="black" fill="rgb(239, 239, 239)" ></path></svg>