<svg xmlns="http://www.w3.org/2000/svg" version="1.2" baseProfile="tiny" width="113.28" height="122.88" viewBox="41 26 118 128"><path d="M 45,150 L 45,30,155,30,155,150" stroke-width="4" stroke="black" fill="rgb(170,255,170)" fill-opacity="1" ></path><path d="m 99.2,58.2 c -3,0.8 -2.5,5.8 -2.5,5.8 l -0.3,16 -37.2,36.5 1.3,4.6 L 96.7,96.6 97,128.6 l -8.5,8.2 0,4.6 9.3,-4.2 c 0.7,0.6 1.8,1.7 1.8,1.7 0,0 1.2,-1.1 1.9,-1.7 l 9.3,4.2 0,-4.6 -8.5,-8.2 0.3,-32 36.2,24.5 1.3,-4.6 -37.2,-36.5 -0.3,-16 c 0,0 0.5,-5 -2.5,-5.8 -0.4,-0.1 -0.7,-0.1 -1.1,0 z" stroke-width="3" stroke="none" fill="black" ></path></svg>